<svg xmlns="http://www.w3.org/2000/svg" viewBox="0 0 190.5 190.5" preserveAspectRatio="xMidYMid">
  <circle cx="95.25" cy="95.25" r="95.25" fill="#5f9ea0"/>
  <path fill="#8fd0d2" d="M95.25 0a95.25 95.25 0 0 1 82.49 47.63H95.25a47.63 47.63 0 0 0-41.24 23.81L12.76 47.64A95.25 95.25 0 0 1 95.25 0Z"/>
  <path fill="#4d8d90" d="M177.74 47.63a95.25 95.25 0 0 1-82.49 142.87l41.24-71.43a47.63 47.63 0 0 0 0-47.63 47.62 47.62 0 0 0-41.24-23.81h82.49Z"/>
  <path fill="#76b7ba" d="M95.25 190.5a95.25 95.25 0 0 1-82.5-142.86L54 119.07a47.63 47.63 0 0 0 82.5 0L95.25 190.5Z"/>
  <circle cx="95.25" cy="95.25" r="47.63" fill="#f7fbfb"/>
  <circle cx="95.25" cy="95.25" r="35.72" fill="#3f7f84"/>
</svg>
